<?xml version="1.0" encoding="UTF-8"?><svg xmlns="http://www.w3.org/2000/svg" width="350" height="154" version="1.0" shape-rendering="geometricPrecision"><defs><filter id="shadowBlur" x="0" y="0" width="200%" height="200%"><feOffset in="SourceGraphic" dx="3.0003002" dy="3.0003002" result="offOut"></feOffset><feGaussianBlur in="offOut" stdDeviation="3"></feGaussianBlur></filter></defs><g stroke-width="1" stroke-linecap="square" stroke-linejoin="round"><rect x="0" y="0" width="350" height="154" style="fill: #ffffff"></rect><path stroke="#969696" fill="#969696" filter="url(#shadowBlur)" d="M25.0 49.0 L315.0 49.0 L315.0 119.0 L25.0 119.0 z"></path><path stroke="#969696" fill="#969696" filter="url(#shadowBlur)" d="M135.0 77.0 L305.0 77.0 L305.0 105.0 L135.0 105.0 z"></path><path stroke="#969696" fill="#969696" filter="url(#shadowBlur)" d="M35.0 77.0 L115.0 77.0 L115.0 105.0 L35.0 105.0 z"></path><path stroke="#000000" stroke-width="1.0" stroke-linecap="round" stroke-linejoin="round" fill="#eeeeee" d="M25.0 49.0 L315.0 49.0 L315.0 119.0 L25.0 119.0 z"></path><path stroke="#000000" stroke-width="1.0" stroke-linecap="round" stroke-linejoin="round" fill="white" d="M135.0 77.0 L305.0 77.0 L305.0 105.0 L135.0 105.0 z"></path><path stroke="#000000" stroke-width="1.0" stroke-linecap="round" stroke-linejoin="round" fill="white" d="M35.0 77.0 L115.0 77.0 L115.0 105.0 L35.0 105.0 z"></path><text x="41" y="68" font-family="sans-serif" font-size="14" stroke="none" fill="#000000"><![CDATA[Frame]]></text><text x="53" y="96" font-family="sans-serif" font-size="15" stroke="none" fill="#000000"><![CDATA[Label]]></text><text x="153" y="96" font-family="sans-serif" font-size="15" stroke="none" fill="#000000"><![CDATA[Entry]]></text></g></svg>